<?xml version="1.0" encoding="iso-8859-1"?>
<!-- Generator: Adobe Illustrator 19.0.0, SVG Export Plug-In . SVG Version: 6.00 Build 0)  -->
<svg version="1.1" id="Capa_1" xmlns="http://www.w3.org/2000/svg" xmlns:xlink="http://www.w3.org/1999/xlink" x="0px" y="0px"
	 viewBox="0 0 495.999 495.999" style="enable-background:new 0 0 495.999 495.999;" xml:space="preserve">
<g>
	<g>
		<g>
			<path d="M454.364,380.271c-9.304-29.472-32.88-52.024-62.368-60.184V147.559c0-39.6-16.352-78.368-44.864-106.352
				c-27.784-27.272-63.864-41.872-101.88-41.184c-77.888,1.464-141.256,66.048-141.256,143.976v176.088
				c-29.496,8.168-53.064,30.72-62.368,60.184L5.084,495.999h485.832L454.364,380.271z M263.996,479.999h-32v-16h16v-16h-16v-24.52
				c7.16,0.448,13.04,0.52,16,0.52s8.84-0.072,16-0.52V479.999z M214.212,263.327c8.528-9.744,20.84-15.328,33.784-15.328
				c12.944,0,25.256,5.584,33.784,15.328l33.888,38.728c-3.712,1.144-7.584,1.944-11.672,1.944h-112c-4.088,0-7.96-0.8-11.672-1.944
				L214.212,263.327z M165.996,294.143c-8.496-7.344-14-18.064-14-30.144v-64c0-22.056,17.944-40,40-40h112
				c22.056,0,40,17.944,40,40v64c0,12.08-5.504,22.8-14,30.144l-36.176-41.344c-11.56-13.224-28.264-20.8-45.824-20.8
				s-34.264,7.576-45.824,20.8L165.996,294.143z M300.9,319.999l-9.36,28.088c-17.272-3.728-37.16-4.088-43.544-4.088
				c-6.384,0-26.272,0.36-43.536,4.088l-9.36-28.088H300.9z M191.996,369.343c4.144-3.44,23.76-9.344,56-9.344
				s51.856,5.904,56,9.344v14.336c-18.656-7.128-47.976-7.68-56-7.68c-8.024,0-37.344,0.552-56,7.68V369.343z M247.996,391.999
				c28.336,0,46.92,4.56,53.824,8c-6.896,3.44-25.488,8-53.824,8s-46.92-4.56-53.824-8
				C201.076,396.559,219.66,391.999,247.996,391.999z M383.844,406.431l-15.688,3.144l14.08,70.424h-102.24v-58.088
				c19.456-2.624,40-8.544,40-21.912v-32c0-6.808-5.384-11.656-13.184-15.152l11.6-34.8c23.904-6.384,41.584-28.168,41.584-54.048
				v-64c0-30.872-25.12-56-56-56h-112c-30.88,0-56,25.128-56,56v64c0,25.88,17.68,47.664,41.584,54.048l11.6,34.8
				c-7.8,3.496-13.184,8.344-13.184,15.152v32c0,13.376,20.544,19.288,40,21.912v58.088h-102.24l14.088-70.432l-15.688-3.144
				l-14.72,73.576H26.908l29.976-94.912c8.216-26.008,29.936-45.496,56.68-50.84l6.432-1.296V143.999
				c0-69.272,56.328-126.68,125.552-127.976c33.6-0.672,65.672,12.368,90.376,36.608c25.464,24.992,40.072,59.592,40.072,94.928
				v185.392l6.432,1.288c26.752,5.352,48.472,24.832,56.68,50.84l29.976,94.92h-70.528L383.844,406.431z"/>
			<path d="M141.404,109.543l15.224,4.92c9.448-29.272,32.56-52.376,61.832-61.84l-4.92-15.216
				C179.396,48.439,152.436,75.399,141.404,109.543z"/>
			<path d="M233.228,49.135c4.816-0.752,9.784-1.136,14.768-1.136v-16c-5.808,0-11.6,0.448-17.232,1.32L233.228,49.135z"/>
		</g>
	</g>
</g>
<g>
</g>
<g>
</g>
<g>
</g>
<g>
</g>
<g>
</g>
<g>
</g>
<g>
</g>
<g>
</g>
<g>
</g>
<g>
</g>
<g>
</g>
<g>
</g>
<g>
</g>
<g>
</g>
<g>
</g>
</svg>
